<?xml version="1.0" standalone="no"?><svg xmlns="http://www.w3.org/2000/svg" viewBox="0 0 1440 320"><path fill="#08cb00" fill-opacity="1" d="M0,160L16,144C32,128,64,96,96,74.7C128,53,160,43,192,80C224,117,256,203,288,218.7C320,235,352,181,384,160C416,139,448,149,480,138.7C512,128,544,96,576,90.7C608,85,640,107,672,106.7C704,107,736,85,768,80C800,75,832,85,864,85.3C896,85,928,75,960,101.3C992,128,1024,192,1056,218.7C1088,245,1120,235,1152,208C1184,181,1216,139,1248,144C1280,149,1312,203,1344,208C1376,213,1408,171,1424,149.3L1440,128L1440,0L1424,0C1408,0,1376,0,1344,0C1312,0,1280,0,1248,0C1216,0,1184,0,1152,0C1120,0,1088,0,1056,0C1024,0,992,0,960,0C928,0,896,0,864,0C832,0,800,0,768,0C736,0,704,0,672,0C640,0,608,0,576,0C544,0,512,0,480,0C448,0,416,0,384,0C352,0,320,0,288,0C256,0,224,0,192,0C160,0,128,0,96,0C64,0,32,0,16,0L0,0Z"></path></svg>